<svg height="511pt" viewBox="-76 1 511 511.99863" width="511pt" xmlns="http://www.w3.org/2000/svg"><path d="m170.484375 130.03125c0 5.519531 4.480469 10 10 10s10-4.480469 10-10-4.480469-10-10-10-10 4.480469-10 10zm0 0"/><path d="m180.484375 416.007812c-5.519531 0-10 4.480469-10 10 0 5.519532 4.480469 10 10 10s10-4.480468 10-10c0-5.519531-4.480469-10-10-10zm0 0"/><path d="m304.941406 204.410156c-33.410156-15.726562-77.609375-24.382812-124.457031-24.382812s-91.046875 8.65625-124.457031 24.382812c-35.808594 16.851563-55.527344 40.152344-55.527344 65.609375v151.988281c0 25.457032 19.71875 48.757813 55.527344 65.609376 33.410156 15.722656 77.609375 24.382812 124.457031 24.382812s91.046875-8.660156 124.457031-24.382812c35.808594-16.851563 55.527344-40.152344 55.527344-65.609376v-151.988281c0-25.457031-19.71875-48.757812-55.527344-65.609375zm-240.398437 18.09375c30.800781-14.496094 71.976562-22.480468 115.941406-22.480468s85.140625 7.984374 115.941406 22.480468c27.992188 13.171875 44.046875 30.492188 44.046875 47.515625 0 17.023438-16.054687 34.34375-44.046875 47.515625-30.800781 14.496094-71.976562 22.480469-115.941406 22.480469s-85.140625-7.984375-115.941406-22.480469c-27.992188-13.171875-44.046875-30.492187-44.046875-47.515625 0-17.023437 16.054687-34.34375 44.046875-47.515625zm275.929687 199.503906c0 17.023438-16.054687 34.339844-44.046875 47.515626-30.800781 14.496093-71.976562 22.476562-115.941406 22.476562s-85.140625-7.980469-115.941406-22.476562c-27.992188-13.175782-44.046875-30.492188-44.046875-47.515626v-38.378906c5.953125 6.199219 13.171875 12.109375 21.570312 17.609375 25.570313 16.734375 60.144532 28.269531 97.355469 32.484375.382813.042969.761719.0625 1.136719.0625 5.019531 0 9.347656-3.769531 9.925781-8.875.621094-5.484375-3.324219-10.4375-8.8125-11.058594-74.847656-8.476562-121.175781-44.929687-121.175781-73.839843v-27.925781c9.003906 8.726562 20.929687 16.671874 35.53125 23.542968 33.410156 15.722656 77.609375 24.382813 124.457031 24.382813 46.84375 0 91.042969-8.660157 124.457031-24.382813 14.601563-6.875 26.523438-14.816406 35.527344-23.542968v27.925781c0 28.910156-46.328125 65.363281-121.175781 73.839843-5.484375.617188-9.429688 5.570313-8.808594 11.058594.578125 5.105469 4.90625 8.875 9.921875 8.875.375 0 .757812-.019531 1.136719-.0625 37.210937-4.214844 71.789062-15.75 97.355469-32.484375 8.402343-5.5 15.621093-11.410156 21.570312-17.609375v38.378906zm0 0"/><path d="m180.484375 320.015625c5.523437 0 10-4.476563 10-10v-79.992187c0-5.523438-4.476563-10-10-10s-10 4.476562-10 10v79.992187c0 5.523437 4.476563 10 10 10zm0 0"/><path d="m230.480469 300.015625c5.523437 0 10-4.476563 10-9.996094v-40c0-5.519531-4.476563-9.996093-10-9.996093-5.523438 0-10 4.476562-10 9.996093v40c0 5.519531 4.476562 9.996094 10 9.996094zm0 0"/><path d="m130.488281 300.015625c5.523438 0 10-4.476563 10-9.996094v-40c0-5.519531-4.476562-9.996093-10-9.996093-5.523437 0-10 4.476562-10 9.996093v40c0 5.519531 4.476563 9.996094 10 9.996094zm0 0"/><path d="m217.828125 103.175781c2.839844-4.734375 1.300781-10.878906-3.433594-13.71875-20.929687-12.550781-46.917969-12.546875-67.824219.003907-4.734374 2.84375-6.269531 8.984374-3.425781 13.71875 2.84375 4.734374 8.988281 6.269531 13.71875 3.425781 14.5625-8.742188 32.664063-8.738281 47.246094.003906 4.757813 2.851563 10.890625 1.285156 13.71875-3.433594zm0 0"/><path d="m257.113281 45.730469c4.597657 3.0625 10.804688 1.816406 13.867188-2.777344 3.0625-4.597656 1.816406-10.804687-2.777344-13.867187l-6.707031-4.464844c-49.214844-32.824219-112.804688-32.828125-161.996094-.015625l-6.730469 4.480469c-4.597656 3.058593-5.84375 9.265624-2.78125 13.863281 3.050781 4.582031 9.25 5.851562 13.863281 2.78125l6.738282-4.484375c42.457031-28.320313 97.335937-28.316406 139.816406.015625zm0 0"/><path d="m230.425781 76.007812c4.605469 3.082032 10.8125 1.820313 13.867188-2.757812 3.070312-4.589844 1.835937-10.800781-2.757813-13.867188l-2.238281-1.496093c-35.726563-23.8125-81.894531-23.8125-117.632813.003906l-2.230468 1.492187c-4.589844 3.066407-5.824219 9.277344-2.757813 13.867188 3.070313 4.59375 9.28125 5.828125 13.871094 2.757812l2.21875-1.480468c28.992187-19.320313 66.453125-19.320313 95.429687-.007813zm0 0"/></svg>