<svg height="512pt" viewBox="-50 0 511 512" width="512pt" xmlns="http://www.w3.org/2000/svg"><path d="m411.121094 335.691406-18.777344-281.609375c-1.984375-29.820312-27.914062-54.082031-57.804688-54.082031h-257.066406c-29.886718 0-55.816406 24.261719-57.804687 54.078125l-18.773438 281.613281c-3.121093 46.832032 12.382813 91.035156 43.660157 124.464844 31.277343 33.433594 74.351562 51.84375 121.285156 51.84375h80.332031c46.9375 0 90.011719-18.410156 121.289063-51.84375 31.277343-33.433594 46.78125-77.632812 43.660156-124.464844zm-361.519532-279.617187c.941407-14.132813 13.707032-26.074219 27.871094-26.074219h257.066406c14.167969 0 26.933594 11.941406 27.871094 26.074219l15.566406 233.484375h-343.941406zm295.953126 383.585937c-25.546876 27.304688-60.839844 42.339844-99.382813 42.339844h-80.332031c-38.539063 0-73.832032-15.035156-99.375-42.339844-25.546875-27.300781-38.199219-63.515625-35.636719-101.972656l1.207031-18.128906h347.941406l1.210938 18.128906c2.5625 38.457031-10.089844 74.667969-35.632812 101.972656zm0 0"/><path d="m206.007812 158.53125c25.988282 0 47.132813-21.144531 47.132813-47.132812 0-25.988282-21.144531-47.132813-47.132813-47.132813-25.992187 0-47.136718 21.144531-47.136718 47.132813 0 25.992187 21.144531 47.132812 47.136718 47.132812zm0-64.265625c9.445313 0 17.132813 7.6875 17.132813 17.132813 0 9.449218-7.6875 17.136718-17.132813 17.136718-9.449218 0-17.136718-7.6875-17.136718-17.136718 0-9.445313 7.6875-17.132813 17.136718-17.132813zm0 0"/><path d="m206.007812 192.800781c-21.5625 0-39.101562 17.539063-39.101562 39.097657 0 21.5625 17.539062 39.101562 39.101562 39.101562 21.558594 0 39.097657-17.539062 39.097657-39.101562 0-21.558594-17.539063-39.097657-39.097657-39.097657zm0 48.199219c-5.019531 0-9.101562-4.082031-9.101562-9.101562 0-5.015626 4.082031-9.097657 9.101562-9.097657 5.015626 0 9.097657 4.082031 9.097657 9.097657 0 5.019531-4.082031 9.101562-9.097657 9.101562zm0 0"/></svg>