<svg height="512pt" viewBox="-50 0 511 512" width="512pt" xmlns="http://www.w3.org/2000/svg"><path d="m206.007812 222.800781c-5.019531 0-9.101562 4.082031-9.101562 9.097657 0 5.019531 4.082031 9.101562 9.101562 9.101562 5.015626 0 9.097657-4.082031 9.097657-9.101562 0-5.015626-4.082031-9.097657-9.097657-9.097657zm0 0"/><path d="m206.007812 94.265625c-9.449218 0-17.136718 7.6875-17.136718 17.132813 0 9.449218 7.6875 17.136718 17.136718 17.136718 9.445313 0 17.132813-7.6875 17.132813-17.136718 0-9.445313-7.6875-17.132813-17.132813-17.132813zm0 0"/><path d="m411.121094 335.691406-1.078125-16.132812h-408.074219l-1.074219 16.132812c-3.121093 46.832032 12.382813 91.035156 43.664063 124.464844 31.273437 33.433594 74.347656 51.84375 121.28125 51.84375h80.332031c46.9375 0 90.011719-18.410156 121.289063-51.84375 31.277343-33.433594 46.78125-77.632812 43.660156-124.464844zm0 0"/><path d="m392.34375 54.082031c-1.984375-29.820312-27.914062-54.082031-57.804688-54.082031h-257.066406c-29.886718 0-55.816406 24.261719-57.804687 54.078125l-15.699219 235.480469h404.074219zm-186.335938 216.917969c-21.5625 0-39.101562-17.539062-39.101562-39.101562 0-21.558594 17.539062-39.097657 39.101562-39.097657 21.558594 0 39.097657 17.539063 39.097657 39.097657 0 21.5625-17.539063 39.101562-39.097657 39.101562zm0-112.46875c-25.992187 0-47.136718-21.144531-47.136718-47.132812 0-25.988282 21.144531-47.132813 47.136718-47.132813 25.988282 0 47.132813 21.144531 47.132813 47.132813 0 25.992187-21.144531 47.132812-47.132813 47.132812zm0 0"/></svg>